<svg viewBox="0 0 586 65" fill="none" xmlns="http://www.w3.org/2000/svg">
<path d="M0 -14.9249C0 -19.9369 4.06306 -24 9.0751 -24H576.425C581.437 -24 585.5 -19.9369 585.5 -14.9249C585.5 -9.91286 581.437 -5.8498 576.425 -5.8498H461.381C456.388 -5.8498 453.891 -5.8498 451.473 -5.74435C427.214 -4.68616 403.97 4.29812 385.305 19.8315C383.446 21.3793 381.598 23.0586 377.902 26.4172L368.041 35.3796C367.755 35.6394 367.612 35.7693 367.473 35.8948C347.172 54.221 320.819 64.4071 293.47 64.4994C293.282 64.5 293.089 64.5 292.703 64.5C292.317 64.5 292.123 64.5 291.936 64.4994C264.587 64.4071 238.234 54.221 217.932 35.8948C217.793 35.7693 217.651 35.6394 217.365 35.3795L207.484 26.3995C203.808 23.0583 201.969 21.3877 200.12 19.8475C181.445 4.29895 158.184 -4.69198 133.907 -5.74544C131.502 -5.8498 129.019 -5.8498 124.051 -5.8498H9.0751C4.06306 -5.8498 0 -9.91286 0 -14.9249Z" fill="black"/>
</svg>
